<?xml version="1.0" standalone="no"?><!DOCTYPE svg PUBLIC "-//W3C//DTD SVG 1.1//EN" "http://www.w3.org/Graphics/SVG/1.1/DTD/svg11.dtd"><svg t="1546769053595" class="icon" style="" viewBox="0 0 1024 1024" version="1.1" xmlns="http://www.w3.org/2000/svg" p-id="16013" xmlns:xlink="http://www.w3.org/1999/xlink" width="200" height="200"><defs><style type="text/css"></style></defs><path d="M999.168 453.312l-428.8-428.8a78.208 78.208 0 0 0-113.28 0l-432.832 428.8a78.208 78.208 0 0 0 0 113.28l432.832 433.088a78.208 78.208 0 0 0 113.28 0l432.832-433.088a81.984 81.984 0 0 0-4.032-113.28z m-84.928 89.024l-376.256 376.384a39.04 39.04 0 0 1-56.576 0L105.152 542.336a39.104 39.104 0 0 1 0-56.64l376.256-376.448a39.04 39.04 0 0 1 56.576 0l376.256 376.448a39.04 39.04 0 0 1 0 56.64zM561.792 512l137.024-137.024a17.536 17.536 0 0 0 0-24.896l-24.896-24.96a17.664 17.664 0 0 0-24.896 0L512 462.208 374.976 325.12a17.664 17.664 0 0 0-24.896 0l-24.96 24.96a17.664 17.664 0 0 0 0 24.896L462.208 512l-137.024 137.024a17.536 17.536 0 0 0 0 24.896l24.96 24.896a17.6 17.6 0 0 0 24.832 0L512 561.792l137.024 137.088a17.664 17.664 0 0 0 24.896 0l24.896-24.96a17.536 17.536 0 0 0 0-24.896L561.792 512" p-id="16014"></path></svg>