<?xml version="1.0" standalone="no"?><!DOCTYPE svg PUBLIC "-//W3C//DTD SVG 1.1//EN" "http://www.w3.org/Graphics/SVG/1.1/DTD/svg11.dtd"><svg t="1546769437757" class="icon" style="" viewBox="0 0 1024 1024" version="1.1" xmlns="http://www.w3.org/2000/svg" p-id="16324" xmlns:xlink="http://www.w3.org/1999/xlink" width="200" height="200"><defs><style type="text/css"></style></defs><path d="M708.923077 472.615385h-157.538462V315.076923c0-23.630769-15.753846-39.384615-39.384615-39.384615s-39.384615 15.753846-39.384615 39.384615v157.538462H315.076923c-23.630769 0-39.384615 15.753846-39.384615 39.384615s15.753846 39.384615 39.384615 39.384615h157.538462v157.538462c0 23.630769 15.753846 39.384615 39.384615 39.384615s39.384615-15.753846 39.384615-39.384615v-157.538462h157.538462c23.630769 0 39.384615-15.753846 39.384615-39.384615s-15.753846-39.384615-39.384615-39.384615z" p-id="16325"></path><path d="M980.676923 448.984615L563.2 31.507692c-31.507692-31.507692-78.769231-31.507692-110.276923 0L31.507692 448.984615c-31.507692 31.507692-31.507692 78.769231 0 110.276923l421.415385 421.415385c31.507692 31.507692 78.769231 31.507692 110.276923 0L984.615385 559.261538c27.569231-27.569231 27.569231-78.769231-3.938462-110.276923z m-82.707692 86.646154l-366.276923 366.276923c-15.753846 15.753846-39.384615 15.753846-55.138462 0l-366.276923-366.276923c-15.753846-15.753846-15.753846-39.384615 0-55.138461l366.276923-366.276923c15.753846-15.753846 39.384615-15.753846 55.138462 0l366.276923 366.276923c15.753846 11.815385 15.753846 39.384615 0 55.138461z" p-id="16326"></path></svg>